<svg xmlns="http://www.w3.org/2000/svg" viewBox="0 0 364.38 374"><defs><style>.cls-1{fill:#7694b2;}.cls-2{fill:#e4eaf0;}</style></defs><g id="Capa_2" data-name="Capa 2"><g id="Capa_1-2" data-name="Capa 1"><path class="cls-1" d="M178.44,255.08a68.18,68.18,0,0,1-55.71-29l-9-12.91H15.06a15.07,15.07,0,0,0,0,30.13H98a98.39,98.39,0,1,0,24.22-137c-2.18,1.52-4.3,3.13-6.34,4.83a57.26,57.26,0,0,1,11.34,31,68,68,0,1,1,51.23,112.81Z"/><path class="cls-2" d="M94.57,93.77A124.76,124.76,0,1,1,75.2,258.61H36.92a25.47,25.47,0,0,1,.52,28.57l-9.6,14.89a186.87,186.87,0,0,0,24.83,26.55L68.21,320a25.66,25.66,0,0,1,38.1,23.66l-.88,17.67c5.6,2.3,11.3,4.3,17.21,6.11s11.73,3.25,17.65,4.45l9.1-15.19a25.66,25.66,0,0,1,44.84,1.47L202.34,374a185,185,0,0,0,35.37-8.22l.28-17.71a25.67,25.67,0,0,1,39.57-21.15l14.89,9.62A185.58,185.58,0,0,0,319,311.73l-8.6-15.53a25.65,25.65,0,0,1,23.67-38.09l17.66.86q3.45-8.34,6.11-17.21c1.77-5.83,3.25-11.73,4.45-17.64L347.1,215a25.66,25.66,0,0,1,1.47-44.84l15.81-8.14a187.49,187.49,0,0,0-8.32-35.37l-17.73-.3a25.65,25.65,0,0,1-21.16-39.55L326.79,72A186.27,186.27,0,0,0,302,45.38L286.45,54a25.65,25.65,0,0,1-38.08-23.66l.86-17.69c-5.58-2.28-11.3-4.3-17.22-6.11a169.67,169.67,0,0,0-17.62-4.37l-9.1,15.06a25.67,25.67,0,0,1-44.84-1.46L152.34,0A186,186,0,0,0,117,8.31l-.3,17.7A25.63,25.63,0,0,1,77.12,47.16L62.23,37.57A186.52,186.52,0,0,0,35.65,62.4l8.61,15.53A25.41,25.41,0,0,1,47.4,92.69a57.18,57.18,0,0,1,47.12,1.12Z"/><circle class="cls-2" cx="69.85" cy="145.64" r="41.03"/></g></g></svg>