<svg xmlns="http://www.w3.org/2000/svg" viewBox="0 0 161.26 165.52"><defs><style>.cls-1{fill:#7694b2;}.cls-2{fill:#04335a;}</style></defs><g id="Capa_2" data-name="Capa 2"><g id="Capa_2-2" data-name="Capa 2"><path class="cls-1" d="M79,112.89a30.17,30.17,0,0,1-24.65-12.84l-4-5.71H6.67a6.67,6.67,0,1,0,0,13.33h36.7A43.54,43.54,0,1,0,54.08,47c-1,.67-1.9,1.38-2.8,2.13a25.36,25.36,0,0,1,5,13.72A30.11,30.11,0,1,1,79,112.8Z"/><path class="cls-2" d="M41.85,41.5a55.23,55.23,0,1,1-4.6,78,54.68,54.68,0,0,1-4-5H16.34a11.27,11.27,0,0,1,.23,12.65l-4.25,6.59a83.74,83.74,0,0,0,11,11.75l6.88-3.81A11.36,11.36,0,0,1,47.05,152.1l-.39,7.82c2.48,1,5,1.9,7.62,2.7s5.19,1.44,7.81,2l4-6.73a11.36,11.36,0,0,1,19.85.65l3.59,7a82.32,82.32,0,0,0,15.65-3.64l.13-7.84a11.36,11.36,0,0,1,11.55-11.17,11.48,11.48,0,0,1,6,1.81l6.59,4.26a82.51,82.51,0,0,0,11.75-11l-3.81-6.87a11.35,11.35,0,0,1,10.48-16.86l7.81.38a80.7,80.7,0,0,0,2.71-7.62c.78-2.58,1.44-5.19,2-7.8l-6.72-4a11.37,11.37,0,0,1,.64-19.85l7-3.6a82.42,82.42,0,0,0-3.68-15.65l-7.85-.14a11.35,11.35,0,0,1-9.36-17.5l4.26-6.59a83.16,83.16,0,0,0-11-11.76l-6.88,3.81a11.36,11.36,0,0,1-16.85-10.47l.38-7.83c-2.47-1-5-1.9-7.62-2.7A77.23,77.23,0,0,0,94.88,1l-4,6.67A11.35,11.35,0,0,1,71,7L67.42,0A81.76,81.76,0,0,0,51.76,3.68l-.13,7.83a11.35,11.35,0,0,1-17.5,9.36l-6.59-4.24a82.12,82.12,0,0,0-11.76,11l3.81,6.87A11.26,11.26,0,0,1,21,41a25.28,25.28,0,0,1,20.85.5Z"/><circle class="cls-1" cx="30.91" cy="64.45" r="18.16"/></g></g></svg>